<?xml version="1.0" encoding="UTF-8" standalone="no"?>
<!-- Created with Inkscape (http://www.inkscape.org/) -->

<svg
   xmlns:dc="http://purl.org/dc/elements/1.1/"
   xmlns:cc="http://creativecommons.org/ns#"
   xmlns:rdf="http://www.w3.org/1999/02/22-rdf-syntax-ns#"
   xmlns:svg="http://www.w3.org/2000/svg"
   xmlns="http://www.w3.org/2000/svg"
   xmlns:sodipodi="http://sodipodi.sourceforge.net/DTD/sodipodi-0.dtd"
   xmlns:inkscape="http://www.inkscape.org/namespaces/inkscape"
   width="135"
   height="50"
   id="svg2"
   version="1.1"
   inkscape:version="0.91 r13725"
   sodipodi:docname="e-go_logo_lg_md_sm.svg">
  <defs
     id="defs4">
    <clipPath
       id="clipPath3009"
       clipPathUnits="userSpaceOnUse">
      <path
         id="path3011"
         d="m 0,0 595.28,0 0,841.89 L 0,841.89 0,0 Z"
         inkscape:connector-curvature="0" />
    </clipPath>
    <clipPath
       id="clipPath3001"
       clipPathUnits="userSpaceOnUse">
      <path
         id="path3003"
         d="m 238.25,641.39 0,-49.72754 145.398,0 0,49.72754 -145.398,0 z"
         inkscape:connector-curvature="0"
         style="clip-rule:evenodd" />
    </clipPath>
    <clipPath
       id="clipPath3024"
       clipPathUnits="userSpaceOnUse">
      <path
         id="path3026"
         d="m 0.059998,265.547 718.903002,0 0,-265.547 -718.903002,0 0,265.547 z"
         inkscape:connector-curvature="0" />
    </clipPath>
  </defs>
  <sodipodi:namedview
     id="base"
     pagecolor="#ffffff"
     bordercolor="#666666"
     borderopacity="1.0"
     inkscape:pageopacity="1"
     inkscape:pageshadow="2"
     inkscape:zoom="1.979899"
     inkscape:cx="97.313505"
     inkscape:cy="151.96116"
     inkscape:document-units="px"
     inkscape:current-layer="layer1"
     showgrid="false"
     inkscape:window-width="1920"
     inkscape:window-height="1017"
     inkscape:window-x="-8"
     inkscape:window-y="-8"
     inkscape:window-maximized="1"
     units="px" />
  <metadata
     id="metadata7">
    <rdf:RDF>
      <cc:Work
         rdf:about="">
        <dc:format>image/svg+xml</dc:format>
        <dc:type
           rdf:resource="http://purl.org/dc/dcmitype/StillImage" />
        <dc:title></dc:title>
      </cc:Work>
    </rdf:RDF>
  </metadata>
  <g
     inkscape:label="Ebene 1"
     inkscape:groupmode="layer"
     id="layer1"
     transform="translate(0,-1002.3622)">
    <g
       transform="matrix(0.18778611,0,0,-0.18829059,-0.0112659,1052.3622)"
       inkscape:label="Logo-eGO-cmyk"
       id="g3014"
       inkscape:export-filename="O:\Projekte\04_e-go\media\logos\logo__.png"
       inkscape:export-xdpi="10.816481"
       inkscape:export-ydpi="10.816481">
      <g
         transform="translate(469.453,140.788)"
         id="g3016">
        <path
           id="path3018"
           style="fill:#00aeef;fill-opacity:1;fill-rule:nonzero;stroke:none"
           d="m 0,0 0,-47.395 c 0,-19.286 -1.514,-35.021 -4.531,-47.216 -3.023,-12.201 -8.658,-21.729 -16.902,-28.579 -8.249,-6.851 -19.689,-11.5 -34.326,-13.937 -14.635,-2.442 -33.573,-3.661 -56.802,-3.661 -20.91,0 -38.683,1.219 -53.317,3.661 -14.638,2.437 -26.488,7.316 -35.548,14.637 -9.06,7.316 -15.68,17.77 -19.864,31.361 -4.181,13.592 -6.272,31.419 -6.272,53.492 l 0,59.941 c 0,21.833 2.206,39.435 6.623,52.796 4.408,13.356 11.264,23.695 20.559,31.016 9.29,7.316 21.198,12.247 35.72,14.81 14.517,2.552 31.887,3.833 52.099,3.833 10.683,0 20.91,-0.063 30.665,-0.173 9.758,-0.12 18.818,-0.821 27.183,-2.091 8.364,-1.282 15.971,-3.488 22.826,-6.621 6.848,-3.138 12.658,-7.729 17.425,-13.769 4.759,-6.04 8.362,-13.764 10.801,-23.172 2.44,-9.408 3.541,-21.085 3.311,-35.021 l -49.832,0 c 0,9.522 -1.221,16.901 -3.66,22.125 -2.44,5.23 -6.158,9 -11.152,11.327 -4.997,2.322 -11.445,3.661 -19.341,4.006 -7.9,0.351 -17.31,0.523 -28.226,0.523 -14.638,0 -26.197,-0.753 -34.674,-2.264 -8.485,-1.511 -14.93,-4.414 -19.341,-8.713 -4.417,-4.298 -7.264,-10.338 -8.538,-18.12 -1.281,-7.786 -2.036,-17.947 -2.267,-30.492 l 0,-59.941 c 0.231,-13.711 1.101,-24.567 2.615,-32.584 1.509,-8.012 4.532,-14.057 9.06,-18.12 4.532,-4.069 11.032,-6.678 19.517,-7.839 8.477,-1.166 19.688,-1.742 33.628,-1.742 11.847,0 21.78,0.288 29.794,0.868 8.017,0.581 14.462,2.495 19.342,5.753 4.879,3.247 8.304,8.304 10.281,15.16 1.971,6.851 2.962,16.431 2.962,28.746 l 0,9.413 -65.865,0 0,37.982 L 0,0"
           inkscape:connector-curvature="0" />
      </g>
      <g
         id="g3020">
        <g
           clip-path="url(#clipPath3024)"
           id="g3022">
          <g
             transform="translate(72.288,92.063)"
             id="g3028">
            <path
               id="path3030"
               style="fill:#00aeef;fill-opacity:1;fill-rule:nonzero;stroke:none"
               d="m 0,0 0,28.027 58.604,0 0,6.946 c 0,9.088 -0.731,16.157 -2.186,21.212 -1.458,5.059 -3.986,8.791 -7.586,11.187 -3.601,2.404 -8.357,3.817 -14.272,4.245 -5.914,0.428 -13.245,0.641 -21.987,0.641 -10.286,0 -18.56,-0.425 -24.815,-1.285 -6.261,-0.857 -11.058,-2.783 -14.401,-5.785 -3.342,-2.998 -5.573,-7.459 -6.686,-13.371 -1.117,-5.916 -1.76,-13.927 -1.929,-24.045 l 0,-44.231 c 0.169,-9.257 0.727,-16.755 1.673,-22.501 0.939,-5.742 3.04,-10.199 6.299,-13.371 3.255,-3.172 8.011,-5.314 14.272,-6.429 6.256,-1.115 14.786,-1.671 25.587,-1.671 8.055,0 14.999,0.127 20.829,0.386 5.827,0.255 10.585,1.242 14.272,2.956 3.685,1.717 6.429,4.499 8.229,8.358 1.8,3.855 2.701,9.3 2.701,16.327 l 36.772,0 c 0.17,-10.284 -0.643,-18.901 -2.443,-25.843 -1.8,-6.942 -4.459,-12.642 -7.97,-17.099 -3.518,-4.457 -7.805,-7.845 -12.858,-10.16 -5.059,-2.312 -10.672,-3.94 -16.844,-4.886 -6.173,-0.937 -12.858,-1.454 -20.059,-1.543 -7.199,-0.081 -14.745,-0.128 -22.629,-0.128 -14.915,0 -27.732,0.946 -38.444,2.829 -10.717,1.891 -19.503,5.53 -26.359,10.928 -6.859,5.403 -11.918,13.032 -15.171,22.888 -3.259,9.859 -4.887,22.848 -4.887,38.959 l 0,44.231 c 0,16.289 1.543,29.444 4.628,39.473 3.087,10.029 7.973,17.743 14.658,23.142 6.686,5.402 15.43,9.003 26.231,10.801 10.8,1.802 23.914,2.701 39.344,2.701 17.142,0 31.117,-0.899 41.916,-2.701 C 65.29,99.39 73.731,95.959 79.819,90.904 85.902,85.849 90.06,78.818 92.291,69.815 94.517,60.816 95.635,49.205 95.635,34.973 L 95.635,0 0,0"
               inkscape:connector-curvature="0" />
          </g>
        </g>
      </g>
      <g
         transform="translate(575.389,220.244)"
         id="g3032">
        <path
           id="path3034"
           style="fill:#00aeef;fill-opacity:1;fill-rule:nonzero;stroke:none"
           d="m 0,0 c -7.899,-1.632 -13.885,-4.419 -17.948,-8.367 -4.066,-3.948 -6.741,-9.293 -8.014,-16.028 -1.279,-6.741 -2.037,-15.333 -2.264,-25.787 l 0,-70.393 c 0,-13.016 0.81,-23.298 2.439,-30.844 1.621,-7.551 4.584,-13.241 8.885,-17.074 4.296,-3.833 10.396,-6.27 18.295,-7.316 7.897,-1.046 18.123,-1.569 30.668,-1.569 11.38,0 20.963,0.576 28.749,1.742 7.782,1.161 14.115,3.713 18.994,7.666 4.879,3.948 8.362,9.696 10.453,17.252 2.092,7.546 3.138,17.597 3.138,30.143 l 0,70.393 c 0.228,12.31 -0.758,21.953 -2.962,28.924 -2.212,6.971 -5.75,12.195 -10.629,15.683 C 74.925,-2.092 68.532,0.115 60.635,1.046 52.736,1.972 43.213,2.437 32.061,2.437 18.585,2.437 7.896,1.621 0,0 Z m 81.197,42.165 c 13.94,-2.092 25.554,-6.448 34.849,-13.068 9.288,-6.621 16.204,-16.264 20.735,-28.924 4.529,-12.666 6.793,-29.447 6.793,-50.355 l 0,-70.393 c 0,-20.908 -2.089,-37.872 -6.272,-50.878 -4.181,-13.016 -10.802,-23.119 -19.862,-30.32 -9.062,-7.206 -20.622,-12.08 -34.674,-14.637 -14.059,-2.552 -30.961,-3.834 -50.705,-3.834 -20.211,0 -37.348,1.167 -51.402,3.489 -14.06,2.316 -25.439,7.023 -34.151,14.109 -8.713,7.086 -15.046,17.194 -18.991,30.32 -3.954,13.121 -5.925,30.373 -5.925,51.751 l 0,70.393 c 0,20.212 1.856,36.591 5.574,49.136 3.713,12.546 9.874,22.241 18.471,29.097 8.592,6.85 19.976,11.442 34.151,13.764 14.169,2.322 31.594,3.488 52.273,3.488 18.819,0 35.197,-1.046 49.136,-3.138"
           inkscape:connector-curvature="0" />
      </g>
      <g
         transform="translate(235.13,26.815)"
         id="g3036">
        <path
           id="path3038"
           style="fill:#231f20;fill-opacity:1;fill-rule:nonzero;stroke:none"
           d="m 0,0 c 0,-14.747 -11.955,-26.702 -26.702,-26.702 -14.747,0 -26.701,11.955 -26.701,26.702 0,14.747 11.954,26.702 26.701,26.702 C -11.955,26.702 0,14.747 0,0"
           inkscape:connector-curvature="0" />
      </g>
    </g>
  </g>
</svg>
